<?xml version="1.0" standalone="no"?>
<!DOCTYPE svg PUBLIC "-//W3C//DTD SVG 20010904//EN"
 "http://www.w3.org/TR/2001/REC-SVG-20010904/DTD/svg10.dtd">
<svg version="1.0" xmlns="http://www.w3.org/2000/svg"
 width="512.000000pt" height="512.000000pt" viewBox="0 0 512.000000 512.000000"
 preserveAspectRatio="xMidYMid meet">
<metadata>
Created by potrace 1.11, written by Peter Selinger 2001-2013
</metadata>
<g transform="translate(0.000000,512.000000) scale(0.100000,-0.100000)"
fill="#000000" stroke="none">
<path d="M0 2560 l0 -2560 2560 0 2560 0 0 2560 0 2560 -2560 0 -2560 0 0
-2560z m2626 1189 c254 -46 482 -308 554 -637 24 -106 27 -316 6 -424 -43
-222 -157 -415 -329 -553 -98 -79 -303 -183 -422 -214 -99 -25 -279 -51 -359
-51 -139 0 -270 45 -314 108 -98 136 1 330 224 438 l93 45 -6 34 c-15 92 32
724 67 895 5 25 9 48 10 52 1 16 33 38 55 38 45 0 48 -27 26 -198 -32 -241
-44 -409 -45 -617 l-1 -190 80 -11 c91 -13 136 -26 174 -50 53 -34 132 -98
141 -114 13 -24 -16 -76 -50 -90 -32 -13 -30 -15 -115 50 -57 43 -111 67 -188
84 -38 9 -41 -4 -29 -147 10 -129 3 -167 -34 -181 -54 -21 -71 22 -77 187 -3
65 -7 120 -10 123 -9 10 -72 -15 -120 -46 -84 -56 -123 -140 -93 -199 22 -42
54 -61 129 -77 81 -17 150 -17 267 1 305 46 539 173 672 363 46 67 104 199
123 282 28 120 24 310 -8 435 -66 253 -219 451 -409 526 -46 18 -67 20 -158
16 -144 -7 -234 -44 -373 -155 -66 -52 -157 -161 -157 -187 0 -33 -79 -67
-105 -45 -41 34 10 135 126 251 199 199 446 296 655 258z m1158 -11 c33 -31
156 -237 221 -373 84 -175 149 -357 196 -544 12 -50 18 -46 44 24 83 228 321
525 537 668 89 58 120 67 153 44 17 -13 17 -18 1 -123 -9 -60 -21 -137 -26
-171 -6 -35 -15 -91 -20 -125 -6 -35 -19 -127 -30 -206 -11 -78 -27 -179 -35
-225 -41 -227 -40 -662 2 -864 l18 -85 -28 -24 c-31 -26 -48 -29 -77 -14 -43
23 -70 215 -70 505 0 379 30 695 104 1073 8 45 10 72 4 72 -15 0 -195 -191
-256 -272 -29 -39 -77 -121 -107 -182 -86 -175 -119 -295 -136 -489 -8 -98
-14 -126 -29 -141 -21 -21 -83 -27 -99 -10 -5 5 -14 61 -20 124 -32 328 -123
645 -271 940 -38 75 -75 141 -82 148 -13 10 -17 -3 -31 -81 -10 -50 -26 -186
-37 -302 -11 -115 -25 -253 -30 -305 -6 -52 -10 -251 -10 -442 0 -295 -2 -349
-15 -362 -33 -33 -96 -32 -111 1 -14 32 -17 501 -5 683 25 355 52 600 96 852
31 181 36 195 77 213 43 19 43 19 72 -7z m-2889 -109 c4 -5 8 -81 9 -167 3
-186 32 -381 77 -529 l10 -33 36 15 c38 16 245 73 358 99 97 22 132 21 146 -5
17 -33 -16 -71 -77 -87 -271 -70 -424 -121 -424 -139 0 -23 47 -135 90 -213
59 -108 122 -191 205 -271 69 -68 75 -76 75 -114 0 -48 -14 -65 -51 -65 -35 0
-174 143 -252 261 -58 87 -136 245 -158 320 -7 22 -18 43 -25 46 -15 6 -315
-138 -330 -158 -6 -8 -66 -180 -133 -384 -136 -411 -150 -436 -201 -385 -11
11 -20 30 -20 43 0 12 45 158 101 325 55 167 99 305 97 308 -5 4 -82 -47 -174
-117 -91 -68 -125 -83 -159 -67 -66 30 -20 79 231 244 l161 106 157 472 c86
259 162 481 168 493 17 34 63 35 83 2z"/>
<path d="M793 3235 c-22 -55 -153 -471 -153 -484 0 -15 -10 -19 128 52 62 32
112 61 112 64 0 4 -11 59 -25 122 -13 64 -30 152 -38 196 -12 76 -13 78 -24
50z"/>
</g>
</svg>
